<svg xmlns="http://www.w3.org/2000/svg" width="200" height="200" viewBox="0 0 200 200">
  <defs>
    <linearGradient id="gradient" x1="0%" y1="0%" x2="100%" y2="100%">
      <stop offset="0%" stop-color="#409EFF" />
      <stop offset="100%" stop-color="#36CFC9" />
    </linearGradient>
  </defs>
  <circle cx="100" cy="100" r="90" fill="url(#gradient)" />
  <path d="M100,30 C130,30 155,55 155,85 C155,115 130,140 100,140 C70,140 45,115 45,85 C45,55 70,30 100,30 Z M100,50 C80,50 65,65 65,85 C65,105 80,120 100,120 C120,120 135,105 135,85 C135,65 120,50 100,50 Z" fill="white" />
  <path d="M70,140 L130,140 L130,170 L70,170 Z" fill="white" />
  <path d="M60,150 L140,150 L140,160 L60,160 Z" fill="white" />
</svg>